{
  "source": "C:\\Users\\Peter\\Desktop\\stuff\\MIUN\\quantitative_research\\video_compression\\videos\\BVI-HD\\BVI-HD_CDVL_videos\\ORIG\\Surfers_1920x1080_30fps.mp4",
  "output": "C:\\Users\\Peter\\Desktop\\stuff\\MIUN\\quantitative_research\\video_compression\\compressed_videos\\BVI-HD\\vp9\\1\\Surfers_1920x1080_30fps_vp9.webm",
  "codec": "vp9",
  "ok": "Input #0, mov,mp4,m4a,3gp,3g2,mj2, from 'C:\\Users\\Peter\\Desktop\\stuff\\MIUN\\quantitative_research\\video_compression\\videos\\BVI-HD\\BVI-HD_CDVL_videos\\ORIG\\Surfers_1920x1080_30fps.mp4':\n  Metadata:\n    major_brand     : isom\n    minor_version   : 512\n    compatible_brands: isomiso2avc1mp41\n    encoder         : Lavf54.28.101\n  Duration: 00:00:05.00, start: 0.000000, bitrate: 232762 kb/s\n  Stream #0:0[0x1](und): Video: h264 (High 4:4:4 Predictive) (avc1 / 0x31637661), yuv420p(progressive), 1920x1080, 232759 kb/s, 30 fps, 30 tbr, 30 tbn (default)\n    Metadata:\n      handler_name    : VideoHandler\n      vendor_id       : [0][0][0][0]\n[out#0/webm @ 000001db88531280] Codec AVOption b:a (set bitrate (in bits/s)) has not been used for any stream. The most likely reason is either wrong type (e.g. a video option with no video streams) or that it is a private option of some decoder which was not actually used for any stream.\nStream mapping:\n  Stream #0:0 -> #0:0 (h264 (native) -> vp9 (libvpx-vp9))\nPress [q] to stop, [?] for help\n[libvpx-vp9 @ 000001db8a2e02c0] v1.15.2-100-g40561f514\nOutput #0, webm, to 'C:\\Users\\Peter\\Desktop\\stuff\\MIUN\\quantitative_research\\video_compression\\compressed_videos\\BVI-HD\\vp9\\1\\Surfers_1920x1080_30fps_vp9.webm':\n  Metadata:\n    major_brand     : isom\n    minor_version   : 512\n    compatible_brands: isomiso2avc1mp41\n    encoder         : Lavf62.3.100\n  Stream #0:0(und): Video: vp9, yuv420p(tv, progressive), 1920x1080, q=2-31, 1000 kb/s, 30 fps, 1k tbn (default)\n    Metadata:\n      encoder         : Lavc62.11.100 libvpx-vp9\n      handler_name    : VideoHandler\n      vendor_id       : [0][0][0][0]\n    Side data:\n      cpb: bitrate max/min/avg: 0/0/0 buffer size: 1000000 vbv_delay: N/A\nframe=    0 fps=0.0 q=0.0 size=       0KiB time=N/A bitrate=N/A speed=N/A elapsed=0:00:00.53    \nframe=    7 fps=6.1 q=53.0 size=       1KiB time=00:00:00.23 bitrate=  21.7kbits/s speed=0.203x elapsed=0:00:01.14    \nframe=   14 fps=8.4 q=61.0 size=       1KiB time=00:00:00.46 bitrate=  10.9kbits/s speed=0.281x elapsed=0:00:01.66    \nframe=   20 fps=9.1 q=62.0 size=       1KiB time=00:00:00.66 bitrate=   7.6kbits/s speed=0.303x elapsed=0:00:02.19    \nframe=   25 fps=9.2 q=57.0 size=       1KiB time=00:00:00.83 bitrate=   6.1kbits/s speed=0.306x elapsed=0:00:02.72    \nframe=   31 fps=9.5 q=47.0 size=       1KiB time=00:00:01.03 bitrate=   4.9kbits/s speed=0.317x elapsed=0:00:03.25    \nframe=   37 fps=9.8 q=60.0 size=       1KiB time=00:00:01.23 bitrate=   4.1kbits/s speed=0.328x elapsed=0:00:03.76    \nframe=   42 fps=9.8 q=58.0 size=       1KiB time=00:00:01.40 bitrate=   3.6kbits/s speed=0.326x elapsed=0:00:04.29    \nframe=   48 fps=9.9 q=59.0 size=       1KiB time=00:00:01.60 bitrate=   3.2kbits/s speed=0.33x elapsed=0:00:04.84    \nframe=   53 fps=9.9 q=55.0 size=       1KiB time=00:00:01.76 bitrate=   2.9kbits/s speed=0.33x elapsed=0:00:05.35    \nframe=   58 fps=9.9 q=59.0 size=       1KiB time=00:00:01.93 bitrate=   2.6kbits/s speed=0.329x elapsed=0:00:05.88    \nframe=   64 fps= 10 q=58.0 size=       1KiB time=00:00:02.13 bitrate=   2.4kbits/s speed=0.332x elapsed=0:00:06.42    \nframe=   70 fps= 10 q=60.0 size=       1KiB time=00:00:02.33 bitrate=   2.2kbits/s speed=0.334x elapsed=0:00:06.98    \nframe=   75 fps= 10 q=57.0 size=       1KiB time=00:00:02.50 bitrate=   2.0kbits/s speed=0.332x elapsed=0:00:07.52    \nframe=   80 fps=9.9 q=57.0 size=       1KiB time=00:00:02.66 bitrate=   1.9kbits/s speed=0.331x elapsed=0:00:08.05    \nframe=   86 fps= 10 q=59.0 size=       1KiB time=00:00:02.86 bitrate=   1.8kbits/s speed=0.334x elapsed=0:00:08.57    \nframe=   90 fps=9.9 q=60.0 size=       1KiB time=00:00:03.00 bitrate=   1.7kbits/s speed=0.33x elapsed=0:00:09.10    \nframe=   95 fps=9.9 q=60.0 size=       1KiB time=00:00:03.16 bitrate=   1.6kbits/s speed=0.33x elapsed=0:00:09.60    \nframe=  100 fps=9.9 q=59.0 size=       1KiB time=00:00:03.33 bitrate=   1.5kbits/s speed=0.329x elapsed=0:00:10.11    \nframe=  105 fps=9.9 q=61.0 size=       1KiB time=00:00:03.50 bitrate=   1.4kbits/s speed=0.329x elapsed=0:00:10.64    \nframe=  111 fps=9.9 q=59.0 size=       1KiB time=00:00:03.70 bitrate=   1.4kbits/s speed=0.332x elapsed=0:00:11.15    \nframe=  116 fps=9.9 q=60.0 size=       1KiB time=00:00:03.86 bitrate=   1.3kbits/s speed=0.331x elapsed=0:00:11.67    \nframe=  122 fps= 10 q=62.0 size=       1KiB time=00:00:04.06 bitrate=   1.2kbits/s speed=0.333x elapsed=0:00:12.20    \nframe=  126 fps=9.9 q=61.0 size=       1KiB time=00:00:04.20 bitrate=   1.2kbits/s speed=0.33x elapsed=0:00:12.74    \nframe=  126 fps=9.5 q=61.0 size=       1KiB time=00:00:04.20 bitrate=   1.2kbits/s speed=0.316x elapsed=0:00:13.28    \nframe=  126 fps=9.1 q=61.0 size=       1KiB time=00:00:04.20 bitrate=   1.2kbits/s speed=0.304x elapsed=0:00:13.81    \nframe=  126 fps=8.8 q=61.0 size=       1KiB time=00:00:04.20 bitrate=   1.2kbits/s speed=0.293x elapsed=0:00:14.34    \nframe=  126 fps=8.5 q=61.0 size=       1KiB time=00:00:04.20 bitrate=   1.2kbits/s speed=0.283x elapsed=0:00:14.86    \n[out#0/webm @ 000001db88531280] video:672KiB audio:0KiB subtitle:0KiB other streams:0KiB global headers:0KiB muxing overhead: 0.254871%\nframe=  150 fps= 10 q=62.0 Lsize=     674KiB time=00:00:05.00 bitrate=1103.9kbits/s speed=0.334x elapsed=0:00:14.97    \n",
  "seconds": 15.205206632614136,
  "probe_out": {}
}